solid AirHarp Pico 013
facet normal 1.0 0.0 0.0
  outer loop
    vertex -554.12 540.5999999999999 12.170000000000007
    vertex -554.12 535.6 16.17000000000001
    vertex -554.12 535.6 12.170000000000007
  endloop
endfacet
facet normal 1.0 0.0 0.0
  outer loop
    vertex -554.12 535.6 16.17000000000001
    vertex -554.12 540.5999999999999 12.170000000000007
    vertex -554.12 540.5999999999999 16.17000000000001
  endloop
endfacet
facet normal 0.0 -1.0 0.0
  outer loop
    vertex -553.3199999999999 534.6 12.170000000000007
    vertex -567.9399999999999 534.6 9.600000000000005
    vertex -553.3199999999999 534.6 9.600000000000005
  endloop
endfacet
facet normal 0.0 -1.0 0.0
  outer loop
    vertex -567.9399999999999 534.6 9.600000000000005
    vertex -553.3199999999999 534.6 12.170000000000007
    vertex -567.9399999999999 534.6 12.170000000000007
  endloop
endfacet
facet normal 1.0 0.0 0.0
  outer loop
    vertex -553.3199999999999 541.6 9.600000000000005
    vertex -553.3199999999999 534.6 12.170000000000007
    vertex -553.3199999999999 534.6 9.600000000000005
  endloop
endfacet
facet normal 1.0 0.0 0.0
  outer loop
    vertex -553.3199999999999 534.6 12.170000000000007
    vertex -553.3199999999999 541.6 9.600000000000005
    vertex -553.3199999999999 541.6 12.170000000000007
  endloop
endfacet
facet normal 0.0 0.0 -1.0
  outer loop
    vertex -553.3199999999999 541.6 9.600000000000005
    vertex -567.9399999999999 534.6 9.600000000000005
    vertex -567.9399999999999 541.6 9.600000000000005
  endloop
endfacet
facet normal 0.0 0.0 -1.0
  outer loop
    vertex -567.9399999999999 534.6 9.600000000000005
    vertex -553.3199999999999 541.6 9.600000000000005
    vertex -553.3199999999999 534.6 9.600000000000005
  endloop
endfacet
facet normal 0.0 1.0 0.0
  outer loop
    vertex -567.14 540.5999999999999 16.17000000000001
    vertex -554.12 540.5999999999999 12.170000000000007
    vertex -567.14 540.5999999999999 12.170000000000007
  endloop
endfacet
facet normal 0.0 1.0 0.0
  outer loop
    vertex -554.12 540.5999999999999 12.170000000000007
    vertex -567.14 540.5999999999999 16.17000000000001
    vertex -554.12 540.5999999999999 16.17000000000001
  endloop
endfacet
facet normal 0.0 0.0 1.0
  outer loop
    vertex -554.12 535.6 16.17000000000001
    vertex -567.14 540.5999999999999 16.17000000000001
    vertex -567.14 535.6 16.17000000000001
  endloop
endfacet
facet normal 0.0 0.0 1.0
  outer loop
    vertex -567.14 540.5999999999999 16.17000000000001
    vertex -554.12 535.6 16.17000000000001
    vertex -554.12 540.5999999999999 16.17000000000001
  endloop
endfacet
facet normal 0.0 1.0 0.0
  outer loop
    vertex -567.9399999999999 541.6 12.170000000000007
    vertex -553.3199999999999 541.6 9.600000000000005
    vertex -567.9399999999999 541.6 9.600000000000005
  endloop
endfacet
facet normal 0.0 1.0 0.0
  outer loop
    vertex -553.3199999999999 541.6 9.600000000000005
    vertex -567.9399999999999 541.6 12.170000000000007
    vertex -553.3199999999999 541.6 12.170000000000007
  endloop
endfacet
facet normal 0.0 -1.0 0.0
  outer loop
    vertex -554.12 535.6 16.17000000000001
    vertex -567.14 535.6 12.170000000000007
    vertex -554.12 535.6 12.170000000000007
  endloop
endfacet
facet normal 0.0 -1.0 0.0
  outer loop
    vertex -567.14 535.6 12.170000000000007
    vertex -554.12 535.6 16.17000000000001
    vertex -567.14 535.6 16.17000000000001
  endloop
endfacet
facet normal 0.0 0.0 1.0
  outer loop
    vertex -567.9399999999999 534.6 12.170000000000007
    vertex -567.14 535.6 12.170000000000007
    vertex -567.9399999999999 541.6 12.170000000000007
  endloop
endfacet
facet normal 0.0 0.0 1.0
  outer loop
    vertex -567.14 535.6 12.170000000000007
    vertex -567.9399999999999 534.6 12.170000000000007
    vertex -553.3199999999999 534.6 12.170000000000007
  endloop
endfacet
facet normal 0.0 0.0 1.0
  outer loop
    vertex -567.14 535.6 12.170000000000007
    vertex -553.3199999999999 534.6 12.170000000000007
    vertex -554.12 535.6 12.170000000000007
  endloop
endfacet
facet normal 0.0 0.0 1.0
  outer loop
    vertex -554.12 535.6 12.170000000000007
    vertex -553.3199999999999 534.6 12.170000000000007
    vertex -554.12 540.5999999999999 12.170000000000007
  endloop
endfacet
facet normal 0.0 0.0 1.0
  outer loop
    vertex -567.9399999999999 541.6 12.170000000000007
    vertex -567.14 540.5999999999999 12.170000000000007
    vertex -553.3199999999999 541.6 12.170000000000007
  endloop
endfacet
facet normal 0.0 0.0 1.0
  outer loop
    vertex -567.14 540.5999999999999 12.170000000000007
    vertex -567.9399999999999 541.6 12.170000000000007
    vertex -567.14 535.6 12.170000000000007
  endloop
endfacet
facet normal 0.0 0.0 1.0
  outer loop
    vertex -553.3199999999999 541.6 12.170000000000007
    vertex -567.14 540.5999999999999 12.170000000000007
    vertex -554.12 540.5999999999999 12.170000000000007
  endloop
endfacet
facet normal 0.0 0.0 1.0
  outer loop
    vertex -553.3199999999999 541.6 12.170000000000007
    vertex -554.12 540.5999999999999 12.170000000000007
    vertex -553.3199999999999 534.6 12.170000000000007
  endloop
endfacet
facet normal -1.0 0.0 0.0
  outer loop
    vertex -567.9399999999999 541.6 12.170000000000007
    vertex -567.9399999999999 534.6 9.600000000000005
    vertex -567.9399999999999 534.6 12.170000000000007
  endloop
endfacet
facet normal -1.0 0.0 0.0
  outer loop
    vertex -567.9399999999999 534.6 9.600000000000005
    vertex -567.9399999999999 541.6 12.170000000000007
    vertex -567.9399999999999 541.6 9.600000000000005
  endloop
endfacet
facet normal -1.0 0.0 0.0
  outer loop
    vertex -567.14 540.5999999999999 16.17000000000001
    vertex -567.14 535.6 12.170000000000007
    vertex -567.14 535.6 16.17000000000001
  endloop
endfacet
facet normal -1.0 0.0 0.0
  outer loop
    vertex -567.14 535.6 12.170000000000007
    vertex -567.14 540.5999999999999 16.17000000000001
    vertex -567.14 540.5999999999999 12.170000000000007
  endloop
endfacet
endsolid AirHarp Pico 013
